<svg width="13" height="18" viewBox="0 0 13 18" fill="none" xmlns="http://www.w3.org/2000/svg">
<path fill-rule="evenodd" clip-rule="evenodd" d="M3.55075 1.26708C4.39017 0.453095 5.52356 0 6.70039 0C7.87722 0 9.01061 0.453095 9.85003 1.26708C10.6903 2.08187 11.1671 3.19231 11.1671 4.35556C11.1671 5.5188 10.6903 6.62924 9.85003 7.44403C9.01061 8.25802 7.87722 8.71111 6.70039 8.71111C5.52356 8.71111 4.39017 8.25802 3.55075 7.44403C2.71049 6.62924 2.23372 5.5188 2.23372 4.35556C2.23372 3.19231 2.71049 2.08187 3.55075 1.26708ZM6.70039 1.6C5.9323 1.6 5.20043 1.89611 4.66458 2.41572C4.12957 2.93452 3.83372 3.63282 3.83372 4.35556C3.83372 5.07829 4.12957 5.7766 4.66458 6.29539C5.20043 6.815 5.9323 7.11111 6.70039 7.11111C7.46849 7.11111 8.20035 6.815 8.7362 6.29539C9.27121 5.7766 9.56706 5.07829 9.56706 4.35556C9.56706 3.63282 9.27121 2.93452 8.7362 2.41572C8.20035 1.89611 7.46849 1.6 6.70039 1.6ZM4.86706 12.2667C4.09896 12.2667 3.3671 12.5628 2.83125 13.0824C2.29624 13.6012 2.00039 14.2995 2.00039 15.0222V16.8C2.00039 17.2418 1.64222 17.6 1.20039 17.6C0.758563 17.6 0.400391 17.2418 0.400391 16.8V15.0222C0.400391 13.859 0.877159 12.7485 1.71742 11.9337C2.55684 11.1198 3.69023 10.6667 4.86706 10.6667H8.53372C9.71055 10.6667 10.8439 11.1198 11.6834 11.9337C12.5236 12.7485 13.0004 13.859 13.0004 15.0222V16.8C13.0004 17.2418 12.6422 17.6 12.2004 17.6C11.7586 17.6 11.4004 17.2418 11.4004 16.8V15.0222C11.4004 14.2995 11.1045 13.6012 10.5695 13.0824C10.0337 12.5628 9.30182 12.2667 8.53372 12.2667H4.86706Z" fill="white"/>
</svg>
